<svg xmlns="http://www.w3.org/2000/svg" viewBox="0 0 54 48"><defs><style>.cls-1{fill:#00416b;}.cls-2{fill:#00416a;}</style></defs><title>Artboard 57</title><g id="Layer_1" data-name="Layer 1"><path class="cls-1" d="M53.6,7.42A2,2,0,0,0,52,6.62H17.26l-.63-4.88a2,2,0,0,0-2-1.74H2A2,2,0,0,0,0,2,2,2,0,0,0,2,4H12.84l3.54,27.22a2,2,0,0,0,2,1.74H45.26a2,2,0,0,0,1.94-1.43L53.92,9.18A2,2,0,0,0,53.6,7.42Zm-4.34,3.19L43.75,29H20.17L17.78,10.61Z"/><ellipse class="cls-2" cx="20.91" cy="42.54" rx="5.04" ry="4.96"/><path class="cls-2" d="M20.91,48a5.46,5.46,0,1,1,5.54-5.46A5.51,5.51,0,0,1,20.91,48Zm0-9.93a4.47,4.47,0,1,0,4.53,4.46A4.5,4.5,0,0,0,20.91,38.07Z"/><ellipse class="cls-2" cx="43.58" cy="42.54" rx="5.04" ry="4.96"/><path class="cls-2" d="M43.58,48a5.46,5.46,0,1,1,5.54-5.46A5.51,5.51,0,0,1,43.58,48Zm0-9.93a4.47,4.47,0,1,0,4.53,4.46A4.5,4.5,0,0,0,43.58,38.07Z"/></g></svg>